<svg width="1518" height="501" viewBox="0 0 1518 501" fill="none" xmlns="http://www.w3.org/2000/svg">
<path d="M144.662 200.512L204.464 158.083L336.062 56.9625M228.4 140.7L407.837 260.325M312.137 212.475L252.325 415.837M276.25 308.175H48.9625M180.55 308.175L84.85 56.9625M132.7 427.8H324.1C376.954 427.8 419.8 384.954 419.8 332.1V140.7C419.8 87.8463 376.954 45 324.1 45H132.7C79.8463 45 37 87.8463 37 140.7V332.1C37 384.954 79.8463 427.8 132.7 427.8Z" stroke="url(#paint0_linear_27019_529)" stroke-width="39.875" stroke-linecap="round" stroke-linejoin="round"/>
<path d="M495.872 111.734V449H463.685C458.709 449 454.511 448.223 451.09 446.668C447.824 444.957 444.637 442.158 441.527 438.271L265.43 213.427C266.363 223.69 266.83 233.175 266.83 241.882V449H211.552V111.734H244.439C247.082 111.734 249.337 111.89 251.203 112.201C253.224 112.356 254.934 112.823 256.334 113.6C257.889 114.222 259.366 115.233 260.765 116.632C262.165 117.876 263.72 119.587 265.43 121.763L442.227 347.54C441.76 342.098 441.371 336.734 441.06 331.447C440.749 326.16 440.594 321.262 440.594 316.753V111.734H495.872ZM676.112 301.825C676.112 294.361 675.024 287.364 672.847 280.834C670.825 274.147 667.716 268.316 663.517 263.34C659.319 258.365 653.954 254.477 647.424 251.678C641.048 248.724 633.585 247.247 625.033 247.247C608.395 247.247 595.256 251.989 585.615 261.475C576.13 270.96 570.066 284.41 567.422 301.825H676.112ZM566.256 336.578C567.189 348.862 569.366 359.513 572.787 368.532C576.208 377.395 580.717 384.781 586.315 390.69C591.912 396.443 598.521 400.797 606.14 403.751C613.915 406.55 622.467 407.95 631.797 407.95C641.126 407.95 649.134 406.861 655.82 404.684C662.662 402.507 668.571 400.097 673.547 397.454C678.678 394.81 683.109 392.4 686.841 390.223C690.729 388.046 694.461 386.958 698.037 386.958C702.857 386.958 706.434 388.746 708.766 392.323L725.326 413.314C718.951 420.778 711.798 427.075 703.868 432.207C695.938 437.182 687.619 441.225 678.911 444.335C670.359 447.29 661.574 449.389 652.555 450.633C643.692 451.877 635.062 452.499 626.665 452.499C610.027 452.499 594.556 449.777 580.25 444.335C565.945 438.737 553.505 430.574 542.932 419.845C532.358 408.96 524.039 395.588 517.975 379.728C511.911 363.712 508.879 345.208 508.879 324.216C508.879 307.889 511.522 292.573 516.809 278.268C522.096 263.807 529.637 251.29 539.433 240.716C549.385 229.987 561.436 221.513 575.586 215.293C589.891 209.073 605.985 205.963 623.866 205.963C638.949 205.963 652.866 208.373 665.616 213.194C678.367 218.014 689.329 225.089 698.503 234.419C707.677 243.593 714.83 254.944 719.962 268.472C725.248 281.844 727.892 297.16 727.892 314.42C727.892 323.128 726.959 329.037 725.093 332.146C723.227 335.101 719.651 336.578 714.364 336.578H566.256ZM948.475 449H892.964C888.766 449 885.345 447.912 882.701 445.735C880.214 443.558 878.114 441.07 876.404 438.271L825.791 355.004C825.013 357.647 824.08 360.135 822.992 362.468C822.059 364.8 820.97 366.977 819.727 368.998L774.944 438.271C773.234 440.914 771.135 443.402 768.647 445.735C766.159 447.912 763.049 449 759.317 449H707.771L789.872 325.616L711.036 209.695H766.548C770.746 209.695 773.856 210.317 775.877 211.561C777.899 212.65 779.687 214.515 781.242 217.159L831.389 296.927C833.099 291.64 835.509 286.431 838.619 281.3L878.97 218.325C882.39 212.572 886.822 209.695 892.264 209.695H945.21L866.608 323.05L948.475 449ZM1089.13 301.825C1089.13 294.361 1088.04 287.364 1085.86 280.834C1083.84 274.147 1080.73 268.316 1076.54 263.34C1072.34 258.365 1066.97 254.477 1060.44 251.678C1054.07 248.724 1046.6 247.247 1038.05 247.247C1021.41 247.247 1008.27 251.989 998.633 261.475C989.148 270.96 983.084 284.41 980.44 301.825H1089.13ZM979.274 336.578C980.207 348.862 982.384 359.513 985.805 368.532C989.226 377.395 993.735 384.781 999.333 390.69C1004.93 396.443 1011.54 400.797 1019.16 403.751C1026.93 406.55 1035.48 407.95 1044.81 407.95C1054.14 407.95 1062.15 406.861 1068.84 404.684C1075.68 402.507 1081.59 400.097 1086.56 397.454C1091.7 394.81 1096.13 392.4 1099.86 390.223C1103.75 388.046 1107.48 386.958 1111.05 386.958C1115.88 386.958 1119.45 388.746 1121.78 392.323L1138.34 413.314C1131.97 420.778 1124.82 427.075 1116.89 432.207C1108.96 437.182 1100.64 441.225 1091.93 444.335C1083.38 447.29 1074.59 449.389 1065.57 450.633C1056.71 451.877 1048.08 452.499 1039.68 452.499C1023.05 452.499 1007.57 449.777 993.268 444.335C978.963 438.737 966.524 430.574 955.95 419.845C945.376 408.96 937.057 395.588 930.993 379.728C924.929 363.712 921.897 345.208 921.897 324.216C921.897 307.889 924.54 292.573 929.827 278.268C935.114 263.807 942.655 251.29 952.451 240.716C962.403 229.987 974.454 221.513 988.604 215.293C1002.91 209.073 1019 205.963 1036.88 205.963C1051.97 205.963 1065.88 208.373 1078.63 213.194C1091.38 218.014 1102.35 225.089 1111.52 234.419C1120.7 243.593 1127.85 254.944 1132.98 268.472C1138.27 281.844 1140.91 297.16 1140.91 314.42C1140.91 323.128 1139.98 329.037 1138.11 332.146C1136.24 335.101 1132.67 336.578 1127.38 336.578H979.274ZM1205.83 251.212C1213.3 236.907 1222.16 225.711 1232.42 217.625C1242.69 209.384 1254.81 205.264 1268.81 205.264C1279.85 205.264 1288.71 207.674 1295.4 212.494L1291.67 255.644C1290.89 258.442 1289.72 260.464 1288.17 261.708C1286.77 262.796 1284.83 263.34 1282.34 263.34C1280 263.34 1276.51 262.952 1271.84 262.174C1267.33 261.397 1262.9 261.008 1258.55 261.008C1252.17 261.008 1246.5 261.941 1241.52 263.807C1236.54 265.673 1232.04 268.394 1227.99 271.97C1224.1 275.391 1220.61 279.59 1217.5 284.565C1214.54 289.541 1211.74 295.217 1209.1 301.592V449H1151.49V209.695H1185.31C1191.22 209.695 1195.34 210.784 1197.67 212.961C1200 214.982 1201.56 218.714 1202.34 224.156L1205.83 251.212ZM1416.08 346.841C1399.44 347.618 1385.45 349.095 1374.1 351.272C1362.75 353.294 1353.65 355.937 1346.81 359.202C1339.97 362.468 1335.07 366.277 1332.12 370.631C1329.16 374.985 1327.68 379.728 1327.68 384.859C1327.68 394.966 1330.64 402.196 1336.55 406.55C1342.61 410.904 1350.46 413.081 1360.1 413.081C1371.92 413.081 1382.11 410.982 1390.66 406.783C1399.37 402.43 1407.84 395.899 1416.08 387.191V346.841ZM1284.07 243.049C1311.59 217.859 1344.71 205.264 1383.43 205.264C1397.42 205.264 1409.94 207.596 1420.98 212.261C1432.02 216.77 1441.35 223.145 1448.97 231.387C1456.59 239.472 1462.34 249.191 1466.23 260.542C1470.27 271.893 1472.29 284.332 1472.29 297.86V449H1446.17C1440.73 449 1436.53 448.223 1433.58 446.668C1430.62 444.957 1428.29 441.614 1426.58 436.638L1421.45 419.378C1415.38 424.821 1409.47 429.641 1403.72 433.839C1397.97 437.882 1391.98 441.303 1385.76 444.102C1379.54 446.901 1372.86 449 1365.7 450.399C1358.71 451.954 1350.93 452.732 1342.38 452.732C1332.27 452.732 1322.94 451.41 1314.39 448.767C1305.84 445.968 1298.45 441.847 1292.23 436.405C1286.01 430.963 1281.19 424.199 1277.77 416.113C1274.35 408.027 1272.64 398.62 1272.64 387.891C1272.64 381.827 1273.65 375.84 1275.67 369.931C1277.69 363.867 1280.96 358.114 1285.47 352.672C1290.13 347.229 1296.12 342.098 1303.43 337.278C1310.74 332.457 1319.68 328.259 1330.25 324.683C1340.98 321.106 1353.42 318.23 1367.57 316.053C1381.72 313.72 1397.89 312.321 1416.08 311.855V297.86C1416.08 281.844 1412.66 270.027 1405.82 262.408C1398.98 254.633 1389.1 250.746 1376.2 250.746C1366.87 250.746 1359.09 251.834 1352.87 254.011C1346.81 256.188 1341.45 258.676 1336.78 261.475C1332.12 264.118 1327.84 266.528 1323.95 268.705C1320.22 270.882 1316.02 271.97 1311.36 271.97C1307.31 271.97 1303.89 270.96 1301.09 268.938C1298.3 266.761 1296.04 264.273 1294.33 261.475L1284.07 243.049Z" fill="white"/>
<defs>
<linearGradient id="paint0_linear_27019_529" x1="93.2941" y1="-84.6775" x2="385.823" y2="483.793" gradientUnits="userSpaceOnUse">
<stop stop-color="#FF701F"/>
<stop offset="1" stop-color="#FBBC05"/>
</linearGradient>
</defs>
</svg>
