<svg width="1763" height="501" viewBox="0 0 1763 501" fill="none" xmlns="http://www.w3.org/2000/svg">
<path d="M144.662 214.512L204.464 172.083L336.062 70.9625M228.4 154.7L407.837 274.325M312.137 226.475L252.325 429.837M276.25 322.175H48.9625M180.55 322.175L84.85 70.9625M132.7 441.8H324.1C376.954 441.8 419.8 398.954 419.8 346.1V154.7C419.8 101.846 376.954 59 324.1 59H132.7C79.8463 59 37 101.846 37 154.7V346.1C37 398.954 79.8463 441.8 132.7 441.8Z" stroke="url(#paint0_linear_27019_529)" stroke-width="39.875" stroke-linecap="round" stroke-linejoin="round"/>
<path d="M760.872 93.7341V431H728.685C723.709 431 719.511 430.223 716.09 428.668C712.824 426.957 709.637 424.158 706.527 420.271L530.43 195.427C531.363 205.69 531.83 215.175 531.83 223.882V431H476.552V93.7341H509.439C512.082 93.7341 514.337 93.8896 516.203 94.2006C518.224 94.3561 519.934 94.8226 521.334 95.6C522.889 96.222 524.366 97.2327 525.765 98.6322C527.165 99.8761 528.72 101.587 530.43 103.763L707.227 329.54C706.76 324.098 706.371 318.734 706.06 313.447C705.749 308.16 705.594 303.262 705.594 298.753V93.7341H760.872ZM941.112 283.825C941.112 276.361 940.024 269.364 937.847 262.834C935.825 256.147 932.716 250.316 928.517 245.34C924.319 240.365 918.954 236.477 912.424 233.678C906.048 230.724 898.585 229.247 890.033 229.247C873.395 229.247 860.256 233.989 850.615 243.475C841.13 252.96 835.066 266.41 832.422 283.825H941.112ZM831.256 318.578C832.189 330.862 834.366 341.513 837.787 350.532C841.208 359.395 845.717 366.781 851.315 372.69C856.912 378.443 863.521 382.797 871.14 385.751C878.915 388.55 887.467 389.95 896.797 389.95C906.126 389.95 914.134 388.861 920.82 386.684C927.662 384.507 933.571 382.097 938.547 379.454C943.678 376.81 948.109 374.4 951.841 372.223C955.729 370.046 959.461 368.958 963.037 368.958C967.857 368.958 971.434 370.746 973.766 374.323L990.326 395.314C983.951 402.778 976.798 409.075 968.868 414.207C960.938 419.182 952.619 423.225 943.911 426.335C935.359 429.29 926.574 431.389 917.555 432.633C908.692 433.877 900.062 434.499 891.665 434.499C875.027 434.499 859.556 431.777 845.25 426.335C830.945 420.737 818.505 412.574 807.932 401.845C797.358 390.96 789.039 377.588 782.975 361.728C776.911 345.712 773.879 327.208 773.879 306.216C773.879 289.889 776.522 274.573 781.809 260.268C787.096 245.807 794.637 233.29 804.433 222.716C814.385 211.987 826.436 203.513 840.586 197.293C854.891 191.073 870.985 187.963 888.866 187.963C903.949 187.963 917.866 190.373 930.616 195.194C943.367 200.014 954.329 207.089 963.503 216.419C972.677 225.593 979.83 236.944 984.962 250.472C990.248 263.844 992.892 279.16 992.892 296.42C992.892 305.128 991.959 311.037 990.093 314.146C988.227 317.101 984.651 318.578 979.364 318.578H831.256ZM1213.48 431H1157.96C1153.77 431 1150.34 429.912 1147.7 427.735C1145.21 425.558 1143.11 423.07 1141.4 420.271L1090.79 337.004C1090.01 339.647 1089.08 342.135 1087.99 344.468C1087.06 346.8 1085.97 348.977 1084.73 350.998L1039.94 420.271C1038.23 422.914 1036.13 425.402 1033.65 427.735C1031.16 429.912 1028.05 431 1024.32 431H972.771L1054.87 307.616L976.036 191.695H1031.55C1035.75 191.695 1038.86 192.317 1040.88 193.561C1042.9 194.65 1044.69 196.515 1046.24 199.159L1096.39 278.927C1098.1 273.64 1100.51 268.431 1103.62 263.3L1143.97 200.325C1147.39 194.572 1151.82 191.695 1157.26 191.695H1210.21L1131.61 305.05L1213.48 431ZM1354.13 283.825C1354.13 276.361 1353.04 269.364 1350.86 262.834C1348.84 256.147 1345.73 250.316 1341.54 245.34C1337.34 240.365 1331.97 236.477 1325.44 233.678C1319.07 230.724 1311.6 229.247 1303.05 229.247C1286.41 229.247 1273.27 233.989 1263.63 243.475C1254.15 252.96 1248.08 266.41 1245.44 283.825H1354.13ZM1244.27 318.578C1245.21 330.862 1247.38 341.513 1250.8 350.532C1254.23 359.395 1258.73 366.781 1264.33 372.69C1269.93 378.443 1276.54 382.797 1284.16 385.751C1291.93 388.55 1300.48 389.95 1309.81 389.95C1319.14 389.95 1327.15 388.861 1333.84 386.684C1340.68 384.507 1346.59 382.097 1351.56 379.454C1356.7 376.81 1361.13 374.4 1364.86 372.223C1368.75 370.046 1372.48 368.958 1376.05 368.958C1380.88 368.958 1384.45 370.746 1386.78 374.323L1403.34 395.314C1396.97 402.778 1389.82 409.075 1381.89 414.207C1373.96 419.182 1365.64 423.225 1356.93 426.335C1348.38 429.29 1339.59 431.389 1330.57 432.633C1321.71 433.877 1313.08 434.499 1304.68 434.499C1288.05 434.499 1272.57 431.777 1258.27 426.335C1243.96 420.737 1231.52 412.574 1220.95 401.845C1210.38 390.96 1202.06 377.588 1195.99 361.728C1189.93 345.712 1186.9 327.208 1186.9 306.216C1186.9 289.889 1189.54 274.573 1194.83 260.268C1200.11 245.807 1207.66 233.29 1217.45 222.716C1227.4 211.987 1239.45 203.513 1253.6 197.293C1267.91 191.073 1284 187.963 1301.88 187.963C1316.97 187.963 1330.88 190.373 1343.63 195.194C1356.38 200.014 1367.35 207.089 1376.52 216.419C1385.7 225.593 1392.85 236.944 1397.98 250.472C1403.27 263.844 1405.91 279.16 1405.91 296.42C1405.91 305.128 1404.98 311.037 1403.11 314.146C1401.24 317.101 1397.67 318.578 1392.38 318.578H1244.27ZM1470.83 233.212C1478.3 218.907 1487.16 207.711 1497.42 199.625C1507.69 191.384 1519.81 187.264 1533.81 187.264C1544.85 187.264 1553.71 189.674 1560.4 194.494L1556.67 237.644C1555.89 240.442 1554.72 242.464 1553.17 243.708C1551.77 244.796 1549.83 245.34 1547.34 245.34C1545 245.34 1541.51 244.952 1536.84 244.174C1532.33 243.397 1527.9 243.008 1523.55 243.008C1517.17 243.008 1511.5 243.941 1506.52 245.807C1501.54 247.673 1497.04 250.394 1492.99 253.97C1489.1 257.391 1485.61 261.59 1482.5 266.565C1479.54 271.541 1476.74 277.217 1474.1 283.592V431H1416.49V191.695H1450.31C1456.22 191.695 1460.34 192.784 1462.67 194.961C1465 196.982 1466.56 200.714 1467.34 206.156L1470.83 233.212ZM1681.08 328.841C1664.44 329.618 1650.45 331.095 1639.1 333.272C1627.75 335.294 1618.65 337.937 1611.81 341.202C1604.97 344.468 1600.07 348.277 1597.12 352.631C1594.16 356.985 1592.68 361.728 1592.68 366.859C1592.68 376.966 1595.64 384.196 1601.55 388.55C1607.61 392.904 1615.46 395.081 1625.1 395.081C1636.92 395.081 1647.11 392.982 1655.66 388.783C1664.37 384.43 1672.84 377.899 1681.08 369.191V328.841ZM1549.07 225.049C1576.59 199.859 1609.71 187.264 1648.43 187.264C1662.42 187.264 1674.94 189.596 1685.98 194.261C1697.02 198.77 1706.35 205.145 1713.97 213.387C1721.59 221.472 1727.34 231.191 1731.23 242.542C1735.27 253.893 1737.29 266.332 1737.29 279.86V431H1711.17C1705.73 431 1701.53 430.223 1698.58 428.668C1695.62 426.957 1693.29 423.614 1691.58 418.638L1686.45 401.378C1680.38 406.821 1674.47 411.641 1668.72 415.839C1662.97 419.882 1656.98 423.303 1650.76 426.102C1644.54 428.901 1637.86 431 1630.7 432.399C1623.71 433.954 1615.93 434.732 1607.38 434.732C1597.27 434.732 1587.94 433.41 1579.39 430.767C1570.84 427.968 1563.45 423.847 1557.23 418.405C1551.01 412.963 1546.19 406.199 1542.77 398.113C1539.35 390.027 1537.64 380.62 1537.64 369.891C1537.64 363.827 1538.65 357.84 1540.67 351.931C1542.69 345.867 1545.96 340.114 1550.47 334.672C1555.13 329.229 1561.12 324.098 1568.43 319.278C1575.74 314.457 1584.68 310.259 1595.25 306.683C1605.98 303.106 1618.42 300.23 1632.57 298.053C1646.72 295.72 1662.89 294.321 1681.08 293.855V279.86C1681.08 263.844 1677.66 252.027 1670.82 244.408C1663.98 236.633 1654.1 232.746 1641.2 232.746C1631.87 232.746 1624.09 233.834 1617.87 236.011C1611.81 238.188 1606.45 240.676 1601.78 243.475C1597.12 246.118 1592.84 248.528 1588.95 250.705C1585.22 252.882 1581.02 253.97 1576.36 253.97C1572.31 253.97 1568.89 252.96 1566.09 250.938C1563.3 248.761 1561.04 246.273 1559.33 243.475L1549.07 225.049Z" fill="white"/>
<defs>
<linearGradient id="paint0_linear_27019_529" x1="93.2941" y1="-70.6775" x2="385.823" y2="497.793" gradientUnits="userSpaceOnUse">
<stop stop-color="#FF701F"/>
<stop offset="1" stop-color="#FBBC05"/>
</linearGradient>
</defs>
</svg>
