<svg width="16" height="16" viewBox="0 0 16 16" fill="none" xmlns="http://www.w3.org/2000/svg">
<path d="M13.5689 6.205C13.6829 6.60322 14.0981 6.83363 14.4964 6.71964C14.8946 6.60565 15.125 6.19042 15.011 5.7922L13.5689 6.205ZM12.59 3.0486L13.1301 2.52824L13.1295 2.52764L12.59 3.0486ZM9.11096 1.1336L9.2625 0.399071L9.2611 0.398784L9.11096 1.1336ZM5.18996 1.5336L4.89453 0.844239L4.89379 0.844557L5.18996 1.5336ZM2.14396 4.1096L1.51365 3.70314L1.51364 3.70315L2.14396 4.1096ZM2.98796 12.9486L3.53029 12.4306L3.52996 12.4302L2.98796 12.9486ZM11.557 13.8196L11.984 14.4362L11.9841 14.4361L11.557 13.8196ZM14.7536 10.9554C14.907 10.5706 14.7195 10.1343 14.3347 9.98094C13.95 9.82753 13.5137 10.0151 13.3603 10.3998L14.7536 10.9554ZM13.5641 5.80996C13.4599 6.21085 13.7004 6.6203 14.1013 6.72449C14.5022 6.82868 14.9117 6.58815 15.0158 6.18725L13.5641 5.80996ZM15.7258 3.45525C15.83 3.05435 15.5895 2.6449 15.1886 2.54072C14.7877 2.43653 14.3783 2.67706 14.2741 3.07796L15.7258 3.45525ZM14.0902 6.72151C14.4894 6.83184 14.9025 6.59762 15.0129 6.19836C15.1232 5.79911 14.889 5.38602 14.4897 5.2757L14.0902 6.72151ZM11.8407 4.5437C11.4415 4.43337 11.0284 4.66759 10.918 5.06684C10.8077 5.46609 11.0419 5.87918 11.4412 5.98951L11.8407 4.5437ZM7.74996 5.9986C7.74996 5.58439 7.41417 5.2486 6.99996 5.2486C6.58574 5.2486 6.24996 5.58439 6.24996 5.9986H7.74996ZM6.99996 8.9986H6.24996C6.24996 9.41282 6.58574 9.7486 6.99996 9.7486V8.9986ZM9.99996 9.7486C10.4142 9.7486 10.75 9.41282 10.75 8.9986C10.75 8.58439 10.4142 8.2486 9.99996 8.2486V9.7486ZM15.011 5.7922C14.6602 4.56683 14.0144 3.44613 13.1301 2.52824L12.0498 3.56897C12.764 4.31028 13.2856 5.21537 13.5689 6.205L15.011 5.7922ZM13.1295 2.52764C12.0842 1.44503 10.7364 0.703154 9.2625 0.399073L8.95941 1.86813C10.1375 2.11119 11.2148 2.7042 12.0504 3.56956L13.1295 2.52764ZM9.2611 0.398784C7.79418 0.099059 6.27071 0.254476 4.89453 0.844239L5.48539 2.22297C6.58071 1.75356 7.79327 1.62986 8.96082 1.86842L9.2611 0.398784ZM4.89379 0.844557C3.50796 1.44022 2.33115 2.43545 1.51365 3.70314L2.77426 4.51607C3.43013 3.49901 4.37429 2.70054 5.48613 2.22265L4.89379 0.844557ZM1.51364 3.70315C-0.471459 6.78162 -0.0858661 10.8198 2.44595 13.467L3.52996 12.4302C1.47778 10.2845 1.16523 7.01133 2.77427 4.51605L1.51364 3.70315ZM2.44562 13.4666C4.95364 16.0923 8.99893 16.5035 11.984 14.4362L11.13 13.203C8.75163 14.8501 5.52855 14.5225 3.53029 12.4306L2.44562 13.4666ZM11.9841 14.4361C13.2293 13.5732 14.1926 12.3625 14.7536 10.9554L13.3603 10.3998C12.9084 11.5332 12.1326 12.5082 11.1298 13.2032L11.9841 14.4361ZM15.0158 6.18725L15.7258 3.45525L14.2741 3.07796L13.5641 5.80996L15.0158 6.18725ZM14.4897 5.2757L11.8407 4.5437L11.4412 5.98951L14.0902 6.72151L14.4897 5.2757ZM6.24996 5.9986V8.9986H7.74996V5.9986H6.24996ZM6.99996 9.7486H9.99996V8.2486H6.99996V9.7486Z" fill="white"/>
</svg>
