<svg width="16" height="16" viewBox="0 0 16 16" fill="none" xmlns="http://www.w3.org/2000/svg">
<path fill-rule="evenodd" clip-rule="evenodd" d="M2.18026 4.11089C0.349183 6.8506 0.676878 10.4964 2.96716 12.8657C5.25744 15.235 8.89006 15.686 11.6903 13.9489C11.7569 13.9069 11.8236 13.8639 11.8903 13.8199C14.2141 12.267 15.3915 9.48048 14.8852 6.73173C14.3789 3.98298 12.2859 1.79888 9.56126 1.17589L9.36625 1.13489C6.5895 0.582401 3.75335 1.75696 2.18026 4.11089Z" stroke="white" stroke-width="1.5" stroke-linecap="round" stroke-linejoin="round"/>
<path fill-rule="evenodd" clip-rule="evenodd" d="M6.33726 6.88894C5.81405 7.67168 5.90763 8.71336 6.56196 9.39033C7.21629 10.0673 8.25418 10.1962 9.05426 9.69994L9.11126 9.66294C9.77551 9.21939 10.1122 8.42316 9.96759 7.63762C9.82301 6.85209 9.22491 6.22791 8.44626 6.04994L8.39026 6.03794C7.59701 5.88009 6.78677 6.21555 6.33726 6.88794V6.88894Z" stroke="white" stroke-width="1.5" stroke-linecap="round" stroke-linejoin="round"/>
<path d="M4.00026 6.49988C4.44888 4.88154 5.83235 3.69571 7.50026 3.49988" stroke="white" stroke-width="1.5" stroke-linecap="round"/>
</svg>
