<svg width="16" height="18" viewBox="0 0 16 18" fill="none" xmlns="http://www.w3.org/2000/svg">
<path d="M5 3.75C5.41421 3.75 5.75 3.41421 5.75 3C5.75 2.58579 5.41421 2.25 5 2.25V3.75ZM11 2.25C10.5858 2.25 10.25 2.58579 10.25 3C10.25 3.41421 10.5858 3.75 11 3.75V2.25ZM5 2.25C4.58579 2.25 4.25 2.58579 4.25 3C4.25 3.41421 4.58579 3.75 5 3.75V2.25ZM11 3.75C11.4142 3.75 11.75 3.41421 11.75 3C11.75 2.58579 11.4142 2.25 11 2.25V3.75ZM5.75 3C5.75 2.58579 5.41421 2.25 5 2.25C4.58579 2.25 4.25 2.58579 4.25 3H5.75ZM4.25 4C4.25 4.41421 4.58579 4.75 5 4.75C5.41421 4.75 5.75 4.41421 5.75 4H4.25ZM4.25 3C4.25 3.41421 4.58579 3.75 5 3.75C5.41421 3.75 5.75 3.41421 5.75 3H4.25ZM5.75 1C5.75 0.585786 5.41421 0.25 5 0.25C4.58579 0.25 4.25 0.585786 4.25 1H5.75ZM11.75 3C11.75 2.58579 11.4142 2.25 11 2.25C10.5858 2.25 10.25 2.58579 10.25 3L11.75 3ZM10.25 4C10.25 4.41421 10.5858 4.75 11 4.75C11.4142 4.75 11.75 4.41421 11.75 4H10.25ZM10.25 3C10.25 3.41421 10.5858 3.75 11 3.75C11.4142 3.75 11.75 3.41421 11.75 3L10.25 3ZM11.75 1C11.75 0.585786 11.4142 0.25 11 0.25C10.5858 0.25 10.25 0.585786 10.25 1H11.75ZM5 2.25C2.37665 2.25 0.25 4.37665 0.25 7H1.75C1.75 5.20507 3.20507 3.75 5 3.75V2.25ZM0.25 7V13L1.75 13V7H0.25ZM0.25 13C0.25 15.6234 2.37665 17.75 5 17.75V16.25C3.20507 16.25 1.75 14.7949 1.75 13L0.25 13ZM5 17.75H11V16.25H5V17.75ZM11 17.75C13.6234 17.75 15.75 15.6234 15.75 13H14.25C14.25 14.7949 12.7949 16.25 11 16.25V17.75ZM15.75 13V7H14.25V13H15.75ZM15.75 7C15.75 4.37665 13.6234 2.25 11 2.25V3.75C12.7949 3.75 14.25 5.20507 14.25 7H15.75ZM5 3.75H11V2.25L5 2.25V3.75ZM4.25 3V4H5.75V3H4.25ZM5.75 3V1H4.25V3H5.75ZM10.25 3V4H11.75V3L10.25 3ZM11.75 3V1H10.25V3L11.75 3Z" fill="white"/>
<path d="M4 10L6 13L12 8" stroke="white" stroke-width="1.5" stroke-linecap="round" stroke-linejoin="round"/>
</svg>
